<?xml version="1.0" encoding="UTF-8"?>
<svg width="24px" height="24px" viewBox="0 0 24 24" version="1.1" xmlns="http://www.w3.org/2000/svg" xmlns:xlink="http://www.w3.org/1999/xlink" jetway-hooks="{}">
  <title>bigquery_svg</title>
  <g jetway-hook-id="63C4533F-CA54-454D-B031-7BC1AE3C9E91" id="Page-1" stroke="none" stroke-width="1" fill="none" fill-rule="evenodd">
    <g jetway-hook-id="54C00C21-A363-4027-B113-9BF0DFB0A23D" id="bigquery_svg">
      <polygon jetway-hook-id="32361262-2192-4C4E-919B-DE30A86A28A6" id="Path" points="0 0 24 0 24 24 0 24"></polygon>
      <g jetway-hook-id="EA714BA6-37E8-4445-B400-407BBBE01C25" id="bigquery" transform="translate(1.200000, 1.200000)">
        <rect jetway-hook-id="FF427FC0-B6F8-4A8F-9B50-EC072B558A50" id="Container" x="0" y="0" width="21.6" height="21.6"></rect>
        <g jetway-hook-id="F8BD918E-34D7-4BE9-B431-0E6604CC5248" id="Shape" transform="translate(1.350000, 1.350000)" fill="#616161" fill-rule="nonzero">
          <path d="M4.47309,8.34165 L4.47309,10.833075 C4.8643875,11.5058475 5.4184275,12.0702825 6.0814125,12.476025 L6.0814125,8.34165 L4.47309,8.34165 L4.47309,8.34165 Z" jetway-hook-id="AE32FF16-929F-417F-9125-D6D8C86B69D7" id="Path"></path>
          <path d="M7.454835,6.0563025 L7.454835,13.1701275 C7.787745,13.220145 8.12835,13.2508575 8.478135,13.2508575 C8.797545,13.2508575 9.108315,13.22325 9.4137525,13.1814675 L9.4137525,6.0563025 L7.454835,6.0563025 L7.454835,6.0563025 Z" jetway-hook-id="D0D53328-385E-47F0-A0EB-5D0085289F71" id="Path"></path>
          <path d="M10.9986525,9.321075 L10.9986525,12.4295175 C11.6713575,12.0002175 12.227625,11.408175 12.60738,10.7040825 L12.60738,9.321075 L10.9986525,9.321075 L10.9986525,9.321075 Z" jetway-hook-id="840F46FB-3E4A-42F2-8DF5-0AA8E4D3364E" id="Path"></path>
          <path d="M14.87376,13.5286875 L13.5292275,14.873895 C13.3735725,15.0290775 13.3735725,15.28254 13.5292275,15.438195 L16.875135,18.783225 C17.0303175,18.9388125 17.2842525,18.9388125 17.439435,18.783225 L18.7839675,17.4393 C18.9386775,17.2841175 18.9386775,17.03025 18.7839675,16.87527 L15.4375875,13.5286875 C15.28281,13.373775 15.0285375,13.373775 14.87376,13.5286875" jetway-hook-id="480E23EF-0F71-4ED4-BD3C-671C09AE2A0F" id="Path"></path>
          <path d="M8.514855,6.75e-05 C3.8124,6.75e-05 0,3.8124 0,8.5153275 C0,13.21785 3.8124,17.03025 8.514855,17.03025 C13.21731,17.03025 17.02971,13.21785 17.02971,8.515395 C17.02971,3.8124 13.2173775,6.75e-05 8.514855,6.75e-05 M8.5149225,14.82381 C5.0307075,14.82381 2.20644,11.9995425 2.20644,8.5153275 C2.20644,5.0311125 5.0307075,2.2062375 8.5149225,2.2062375 C11.9991375,2.2062375 14.82381,5.03118 14.82381,8.5153275 C14.82381,11.999475 11.99907,14.82381 8.5149225,14.82381" jetway-hook-id="1AA7FA7A-EF0F-4D95-9F00-F7D1E5879AAA"></path>
        </g>
      </g>
    </g>
  </g>
</svg>