<?xml version="1.0" encoding="UTF-8" standalone="no"?>
<svg width="20px" height="20px" viewBox="0 0 20 20" version="1.1" xmlns="http://www.w3.org/2000/svg" xmlns:xlink="http://www.w3.org/1999/xlink">
    <!-- Generator: Sketch 39 (31667) - http://www.bohemiancoding.com/sketch -->
    <title>20/traces-sample</title>
    <desc>Created with Sketch.</desc>
    <defs></defs>
    <g id="All-Icons" stroke="none" stroke-width="1" fill="none" fill-rule="evenodd">
        <g id="20/traces-sample">
            <polygon id="Container" points="0 0 20 0 20 20 0 20"></polygon>
            <path d="M3,3 L17,3 L17,5 L3,5 L3,3 Z M3,11 L5,11 L5,13 L3,13 L3,11 Z M3,7 L5,7 L5,9 L3,9 L3,7 Z M3,15 L17,15 L17,17 L3,17 L3,15 Z M7,11 L9,11 L9,13 L7,13 L7,11 Z M7,7 L9,7 L9,9 L7,9 L7,7 Z M11,11 L13,11 L13,13 L11,13 L11,11 Z M11,7 L13,7 L13,9 L11,9 L11,7 Z M15,11 L17,11 L17,13 L15,13 L15,11 Z M15,7 L17,7 L17,9 L15,9 L15,7 Z" id="Shape-Copy" fill="#000000"></path>
        </g>
    </g>
</svg>