<?xml version="1.0" encoding="UTF-8"?>
<svg width="24px" height="24px" viewBox="0 0 24 24" version="1.1" xmlns="http://www.w3.org/2000/svg" xmlns:xlink="http://www.w3.org/1999/xlink">
    <!-- Generator: Sketch 50.2 (55047) - http://www.bohemiancoding.com/sketch -->
    <title>24/open-editor</title>
    <desc>Created with Sketch.</desc>
    <defs></defs>
    <g id="24/open-editor" stroke="none" stroke-width="1" fill="none" fill-rule="evenodd">
        <polygon id="Container" points="0 0 24 0 24 24 0 24"></polygon>
        <path d="M5,4 C3.89,4 3,4.9 3,6 L3,18 C3,19.1 3.89,20 5,20 L9,20 L7,18 L5,18 L5,8 L19,8 L19,18 L17,18 L15,20 L19,20 C20.1,20 21,19.1 21,18 L21,6 C21,4.9 20.11,4 19,4 L5,4 Z M12,20 L8,16 L11,16 L11,10 L13,10 L13,16 L16,16 L12,20 L12,20 Z" id="Shape" fill="#000000"></path>
    </g>
</svg>