<?xml version="1.0" encoding="UTF-8"?>
<svg width="20px" height="20px" viewBox="0 0 20 20" version="1.1" xmlns="http://www.w3.org/2000/svg" xmlns:xlink="http://www.w3.org/1999/xlink">
    <!-- Generator: Sketch 50.2 (55047) - http://www.bohemiancoding.com/sketch -->
    <title>18/ic-table-partitioned</title>
    <desc>Created with Sketch.</desc>
    <defs></defs>
    <g id="18/ic-table-partitioned" stroke="none" stroke-width="1" fill="none" fill-rule="evenodd">
        <polygon id="Container" points="0 0 18 0 18 18 0 18"></polygon>
        <path d="M2,4.00585866 C2,2.89805351 2.89706013,2 4.00585866,2 L13.9941413,2 C15.1019465,2 16,2.89706013 16,4.00585866 L16,13.9941413 C16,15.1019465 15.1029399,16 13.9941413,16 L4.00585866,16 C2.89805351,16 2,15.1029399 2,13.9941413 L2,4.00585866 Z M16,8 L16,10 L2,10 L2,8 L16,8 Z M4,4 L14,4 L14,6 L4,6 L4,4 Z M4,12 L6,12 L6,14 L4,14 L4,12 Z M12,12 L14,12 L14,14 L12,14 L12,12 Z M8,12 L10,12 L10,14 L8,14 L8,12 Z" id="Shape" fill="#000000"></path>
    </g>
</svg>