<?xml version="1.0" encoding="UTF-8"?>
<svg width="24px" height="24px" viewBox="0 0 24 24" version="1.1" xmlns="http://www.w3.org/2000/svg" xmlns:xlink="http://www.w3.org/1999/xlink">
    <!-- Generator: Sketch 50.2 (55047) - http://www.bohemiancoding.com/sketch -->
    <title>24/table</title>
    <desc>Created with Sketch.</desc>
    <defs></defs>
    <g id="24/table" stroke="none" stroke-width="1" fill="none" fill-rule="evenodd">
        <polygon id="Container" points="0 0 18 0 18 18 0 18"></polygon>
        <path d="M3,4.99508929 C3,3.8932319 3.8926228,3 4.99508929,3 L19.0049107,3 C20.1067681,3 21,3.8926228 21,4.99508929 L21,19.0049107 C21,20.1067681 20.1073772,21 19.0049107,21 L4.99508929,21 C3.8932319,21 3,20.1073772 3,19.0049107 L3,4.99508929 Z M5,5 L5,7 L19,7 L19,5 L5,5 Z M5,13 L5,15 L7,15 L7,13 L5,13 Z M5,17 L5,19 L7,19 L7,17 L5,17 Z M17,9 L17,11 L19,11 L19,9 L17,9 Z M13,9 L13,11 L15,11 L15,9 L13,9 Z M9,9 L9,11 L11,11 L11,9 L9,9 Z M5,9 L5,11 L7,11 L7,9 L5,9 Z M17,13 L17,15 L19,15 L19,13 L17,13 Z M13,13 L13,15 L15,15 L15,13 L13,13 Z M9,13 L9,15 L11,15 L11,13 L9,13 Z M17,17 L17,19 L19,19 L19,17 L17,17 Z M13,17 L13,19 L15,19 L15,17 L13,17 Z M9,17 L9,19 L11,19 L11,17 L9,17 Z" id="Shape" fill="#000000"></path>
    </g>
</svg>