<svg xmlns="http://www.w3.org/2000/svg" height="24" viewBox="0 0 32 32" width="24" fit="" preserveAspectRatio="xMidYMid meet" focusable="false"><path d="M23.43 21l1.18-2h5.643L32 16l-3.495-6h-4.91l-1.697-2.97H20V5h3.102l1.696 3h2.543l-3.49-6H17v8h2.783l1.166 2H17v4h3.626l1.68-3H26.8l1.157 2H23.48l-1.682 3H17v7h5.453l-1.155 2H17v3h6.846l5.242-9h-3.336l-1.18 2H20v-2z" fill="#616161"></path><path d="M8.57 21l-1.18-2H1.746L0 16l3.495-6h4.91l1.697-2.97H12V5H8.898L7.202 8H4.66l3.494-6H15v8h-2.783l-1.166 2H15v4h-3.626l-1.68-3H5.198l-1.156 2H8.52l1.682 3H15v7H9.547l1.155 2H15v3H8.154l-5.242-9h3.336l1.18 2H12v-2z" fill="#616161"></path></svg>